Coordinates
version=1
nRows=19
nColumns=33
inDegrees=yes

Units are S.I. units (second, meters, Newtons, ...)
Angles are in degrees.

endheader
time	ground_thorax_rot_x	ground_thorax_rot_y	ground_thorax_rot_z	ground_thorax_tx	ground_thorax_ty	ground_thorax_tz	clav_prot_r	clav_elev_r	scapula_abduction_r	scapula_elevation_r	scapula_upward_rot_r	scapula_winging_r	shoulder_elv_r	plane_of_elev_r	axial_rot_r	elbow_flexion_r	pro_sup_r	wrist_flex_r	wrist_dev_r	clav_prot_l	clav_elev_l	scapula_abduction_l	scapula_elevation_l	scapula_upward_rot_l	scapula_winging_l	shoulder_elv_l	plane_of_elev_l	axial_rot_l	elbow_flexion_l	pro_sup_l	wrist_flex_l	wrist_dev_l
     11.81000000	     36.21525912	     20.46821751	     21.09215228	   -205.25328870	    819.88991153	      6.99995684	     13.16831413	     36.02712874	     36.05312990	     45.00000000	    -45.00000000	  -2244.01032610	  -2264.89239058	    143.33925604	    179.99999979	   1092.55558379	   -313.24592663	     23.24160918	     10.52220448	      7.15752982	    -45.00000000	    -37.30869939	     45.00000000	    -41.46520535	   2258.46094017	  -4772.21920429	    137.92857214	    154.94504754	    370.53476715	     -2.00942192	      8.11149122	    -19.64867785
     11.82000000	     36.26674232	     20.25843600	     20.83963889	   -206.80223124	    820.42322281	      7.01263840	     13.10718074	     36.02565951	     36.03972721	     45.00000000	    -45.00000000	  -2244.05010301	  -2264.83657544	    143.34075427	    179.99999979	   1092.54454809	   -313.41591421	     23.25625056	     10.48380483	      7.14694847	    -45.00000000	    -37.30412963	     45.00000000	    -41.36447716	   2258.54876105	  -4772.22386458	    137.97520843	    154.78916479	    370.49517455	     -2.22260943	      8.04474527	    -19.64337601
     11.83000000	     36.30477039	     20.09312215	     20.62601210	   -208.34740658	    820.95038381	      7.02029558	     13.06971783	     36.01063098	     35.99863710	     45.00000000	    -45.00000000	  -2244.08402754	  -2264.77984785	    143.35805814	    179.99999979	   1092.53662998	   -313.55189463	     23.26901921	     10.45299007	      7.15838440	    -45.00000000	    -37.29437964	     45.00000000	    -41.35042452	   2258.63386910	  -4772.18618516	    138.00790461	    154.59319235	    370.47394783	     -2.41364261	      7.96569261	    -19.63966667
     11.84000000	     36.35666804	     19.87646472	     20.38101498	   -209.88335773	    821.47133524	      7.02277560	     13.00923814	     36.00966744	     35.96873471	     45.00000000	    -45.00000000	  -2244.10960875	  -2264.72758439	    143.34833911	    179.99999979	   1092.54377760	   -313.65105907	     23.28065555	     10.39820707	      7.15116414	    -45.00000000	    -37.29086697	     45.00000000	    -41.21901752	   2258.72718473	  -4772.20026106	    138.06885977	    154.37834251	    370.43898400	     -2.56968308	      7.89074580	    -19.63624039
     11.85000000	     36.35615128	     19.75883186	     20.22983206	   -211.40613611	    821.98685092	      7.01883046	     13.01272127	     35.96629322	     35.89455113	     45.00000000	    -45.00000000	  -2244.12367751	  -2264.68077790	    143.38198761	    179.99999979	   1092.54152490	   -313.71225724	     23.29160777	     10.36748373	      7.20065322	    -45.00000000	    -37.28685233	     45.00000000	    -41.41457724	   2258.80920354	  -4772.09415203	    138.09065774	    154.14916950	    370.45242235	     -2.72024450	      7.78787998	    -19.63769669
     11.86000000	     36.45395639	     19.48602864	     19.91036517	   -212.91005616	    822.49612049	      7.00744288	     12.88829662	     35.99731421	     35.89117322	     45.00000000	    -45.00000000	  -2244.15428010	  -2264.58247988	    143.35076461	    179.99999979	   1092.48023826	   -313.72383123	     23.29620193	     10.29452344	      7.16189811	    -45.00000000	    -37.25005492	     45.00000000	    -41.24337069	   2258.85791999	  -4772.17573056	    138.11729977	    154.05875145	    370.35444164	     -2.83245295	      7.70513150	    -19.62272609
     11.87000000	     36.59347974	     19.09698155	     19.51291647	   -214.39012429	    822.99749130	      6.98725975	     12.86124115	     35.98528765	     35.80523145	     45.00000000	    -45.00000000	  -2244.11487722	  -2264.34250789	    143.15050540	    179.99999979	   1092.39429925	   -313.69386927	     23.30360958	     10.26470370	      7.18580786	    -45.00000000	    -37.22176137	     45.00000000	    -40.94718456	   2258.99413617	  -4772.22498895	    138.09793029	    153.66542068	    370.22745194	     -2.85183793	      7.65802174	    -19.59859691
     11.88000000	     36.53094350	     19.15269489	     19.53355111	   -215.84512500	    823.48947132	      6.95806520	     12.87390931	     35.94035795	     35.74307403	     45.00000000	    -45.00000000	  -2244.21564354	  -2264.38598017	    143.31963040	    179.99999979	   1092.50228059	   -313.67031968	     23.31691369	     10.16995253	      7.20586760	    -45.00000000	    -37.17259984	     45.00000000	    -41.16149749	   2259.07448547	  -4772.07581148	    138.16415963	    153.39076001	    370.30908692	     -2.90017119	      7.49014326	    -19.62272252
     11.89000000	     36.45766793	     19.25642770	     19.65600433	   -217.27315452	    823.97046217	      6.91976750	     12.97582637	     35.82250329	     35.53518664	     45.00000000	    -45.00000000	  -2244.20689324	  -2264.36219482	    143.43091413	    179.99999979	   1092.50496282	   -313.54323303	     23.37444021	     10.20845575	      7.48384417	    -45.00000000	    -37.06264066	     45.00000000	    -42.43204623	   2259.10782576	  -4771.73546362	    137.99221883	    153.53647285	    370.43834892	     -3.02371461	      7.31142517	    -19.63743002
     11.90000000	     36.53810197	     18.91119485	     19.27819980	   -218.67040457	    824.43860170	      6.87341227	     12.77466205	     35.92209047	     35.65188460	     45.00000000	    -45.00000000	  -2244.27944320	  -2264.45120684	    143.43963157	    179.99999979	   1092.55905516	   -313.46908133	     23.33211834	      9.97171845	      7.26151278	    -45.00000000	    -37.18157596	     45.00000000	    -41.79580386	   2259.12368540	  -4771.93121960	    138.23577544	    153.65303463	    370.36928443	     -3.00759148	      7.41672227	    -19.63405022
     11.91000000	     36.61493290	     18.65386855	     18.98246654	   -220.04151677	    824.89514308	      6.82038697	     12.72391619	     35.91284438	     35.59982942	     45.00000000	    -45.00000000	  -2244.27038244	  -2264.34367023	    143.40364678	    179.99999979	   1092.52922532	   -313.35263671	     23.37141663	      9.92547268	      7.28327750	    -45.00000000	    -37.15966777	     45.00000000	    -41.54932737	   2259.22582429	  -4771.96353337	    138.24290764	    153.20386639	    370.29803066	     -2.91437871	      7.25983149	    -19.64457987
     11.92000000	     36.70135183	     18.47954439	     18.74595473	   -221.38443315	    825.34020608	      6.76290362	     12.68721685	     35.90025824	     35.52065801	     45.00000000	    -45.00000000	  -2244.29016147	  -2264.21631219	    143.37081506	    179.99999979	   1092.46375948	   -313.22634853	     23.36455638	      9.84141527	      7.28231307	    -45.00000000	    -37.11778222	     45.00000000	    -41.38429020	   2259.30520925	  -4771.98608420	    138.25219206	    152.86463669	    370.24168351	     -2.80471500	      7.16826347	    -19.64297227
     11.93000000	     36.74193462	     18.21418382	     18.50297992	   -222.69562409	    825.77316440	      6.70328567	     12.65407512	     35.88932140	     35.47085035	     45.00000000	    -45.00000000	  -2244.27949882	  -2264.13067640	    143.29049728	    179.99999979	   1092.50655021	   -313.09799845	     23.39888316	      9.76413122	      7.29562766	    -45.00000000	    -37.15821642	     45.00000000	    -41.22751165	   2259.45774057	  -4771.93972753	    138.34013149	    152.54257554	    370.23231687	     -2.66751137	      7.06648187	    -19.66129217
     11.94000000	     36.75526602	     18.21278789	     18.44726435	   -223.97714579	    826.19411769	      6.64388495	     12.61440601	     35.87927183	     35.37585884	     45.00000000	    -45.00000000	  -2244.31973347	  -2264.12798520	    143.36529511	    179.99999979	   1092.47106521	   -312.94223912	     23.41723307	      9.68779510	      7.31807289	    -45.00000000	    -37.00865352	     45.00000000	    -41.73597207	   2259.44013106	  -4771.81672263	    138.25002122	    152.49300576	    370.28957652	     -2.55103530	      6.88269243	    -19.68687191
     11.95000000	     36.79573190	     17.96469489	     18.24091469	   -225.22363035	    826.59914024	      6.58726614	     12.57069480	     35.85407719	     35.34003108	     45.00000000	    -45.00000000	  -2244.29634247	  -2264.08391240	    143.32226141	    179.99999979	   1092.50232903	   -312.77103654	     23.44923652	      9.59883305	      7.33994237	    -45.00000000	    -37.05453066	     45.00000000	    -41.75252135	   2259.50666566	  -4771.81396303	    138.28050411	    152.57697627	    370.25906913	     -2.37783282	      6.81575949	    -19.68840017
     11.96000000	     36.82352468	     17.97301700	     18.20518431	   -226.43702688	    826.98536486	      6.53547581	     12.55882492	     35.84144535	     35.24615467	     45.00000000	    -45.00000000	  -2244.35414847	  -2264.07644153	    143.40979915	    179.99999979	   1092.49720293	   -312.57469168	     23.45068762	      9.48700981	      7.37972395	    -45.00000000	    -36.94577685	     45.00000000	    -42.10738858	   2259.53339640	  -4771.69984730	    138.22489995	    152.50588829	    370.30051622	     -2.13348679	      6.68417294	    -19.71565063
     11.97000000	     36.89102876	     17.70121176	     17.89407639	   -227.61388611	    827.34753147	      6.49055286	     12.48938464	     35.82360425	     35.19807493	     45.00000000	    -45.00000000	  -2244.34296717	  -2263.98809150	    143.34175002	    179.99999979	   1092.52024548	   -312.35688960	     23.50009207	      9.40081908	      7.37885530	    -45.00000000	    -37.00075263	     45.00000000	    -41.98032340	   2259.59694283	  -4771.68143516	    138.24064424	    152.53170508	    370.28914184	     -1.85118882	      6.55576535	    -19.72324259
     11.98000000	     36.87811191	     17.70831915	     17.93255242	   -228.75493808	    827.68148653	      6.45403190	     12.49438207	     35.82422902	     35.09948480	     45.00000000	    -45.00000000	  -2244.37141149	  -2264.06601029	    143.42483056	    179.99999979	   1092.57302238	   -312.12924547	     23.47804919	      9.24335236	      7.38929705	    -45.00000000	    -36.89471675	     45.00000000	    -42.36469931	   2259.62012959	  -4771.55886683	    138.22413908	    152.39064689	    370.35533142	     -1.49543159	      6.46423120	    -19.75427566
     11.99000000	     36.94007851	     17.49212534	     17.70919247	   -229.85513654	    827.98211980	      6.42752238	     12.42650603	     35.77380152	     35.03278291	     45.00000000	    -45.00000000	  -2244.35651276	  -2263.94770900	    143.37788861	    179.99999979	   1092.58763051	   -311.84124028	     23.57252282	      9.20751004	      7.41316560	    -45.00000000	    -36.89117255	     45.00000000	    -42.36724478	   2259.67038228	  -4771.56218370	    138.17501183	    152.56249321	    370.30184924	     -1.15559331	      6.21896781	    -19.75070868
